<?xml version="1.0" standalone="no"?>
<!DOCTYPE svg PUBLIC "-//W3C//DTD SVG 20010904//EN"
 "http://www.w3.org/TR/2001/REC-SVG-20010904/DTD/svg10.dtd">
<svg version="1.0" xmlns="http://www.w3.org/2000/svg"
 width="539.000000pt" height="491.000000pt" viewBox="0 0 539.000000 491.000000"
 preserveAspectRatio="xMidYMid meet">

<g transform="translate(0.000000,491.000000) scale(0.100000,-0.100000)"
fill="#000000" stroke="none">
<path d="M3710 3155 c-96 -8 -240 -18 -320 -24 -80 -6 -199 -14 -265 -17
l-120 -7 -35 -38 c-47 -50 -121 -192 -159 -304 l-30 -90 74 -5 c41 -3 77 -9
81 -12 3 -4 -10 -46 -29 -95 -56 -142 -113 -318 -152 -471 l-37 -143 26 -42
c48 -83 235 -237 264 -218 12 8 98 146 152 246 24 44 44 81 44 82 1 0 48 6
106 12 220 22 397 86 501 179 77 69 132 163 86 147 -19 -7 -394 -35 -469 -35
-37 0 -69 4 -72 8 -2 4 8 37 24 72 15 36 40 98 55 138 l27 74 52 -7 c83 -11
343 -65 387 -80 72 -26 64 -50 100 285 5 47 15 141 24 210 8 69 15 131 15 138
0 15 -88 14 -330 -3z"/>
</g>
</svg>
