<svg version="1.1" id="Layer_1" xmlns="http://www.w3.org/2000/svg" xmlns:xlink="http://www.w3.org/1999/xlink" x="0px" y="0px"
	 width="100%" viewBox="0 0 289 248" enable-background="new 0 0 289 248" xml:space="preserve">
<path fill="#FEFEFE" opacity="1.000000" stroke="none" 
	d="
M142.000000,249.000000 
	C94.666672,249.000000 47.833344,249.000000 1.000013,249.000000 
	C1.000008,166.333344 1.000008,83.666695 1.000004,1.000035 
	C97.333305,1.000023 193.666611,1.000023 289.999939,1.000012 
	C289.999939,83.666634 289.999939,166.333267 289.999969,248.999939 
	C240.833328,249.000000 191.666672,249.000000 142.000000,249.000000 
M76.656105,168.501938 
	C72.087769,158.164001 67.387077,147.881348 63.030743,137.454834 
	C61.702076,134.274780 59.882263,133.427261 56.618893,133.474701 
	C44.475327,133.651230 32.327526,133.535950 20.181313,133.530548 
	C18.091648,133.529617 16.001982,133.530411 13.026148,133.530411 
	C14.613944,137.101196 15.803126,139.780075 16.995935,142.457336 
	C28.966389,169.325089 40.937447,196.192551 53.026203,223.881210 
	C54.735840,224.211151 56.443928,224.817429 58.155361,224.827011 
	C71.146370,224.899857 84.140907,224.702972 97.127640,224.946991 
	C100.750572,225.015060 102.328781,223.718918 103.730652,220.543671 
	C128.859756,163.625992 154.110809,106.762154 179.328339,49.883499 
	C183.885391,39.604961 188.409790,29.311956 193.262924,18.314892 
	C177.198578,18.314892 161.938507,18.235029 146.683319,18.470875 
	C145.499680,18.489174 143.891891,20.517818 143.251373,21.955257 
	C122.122452,69.372574 101.095940,116.835518 80.006561,164.270493 
	C79.232063,166.012512 77.978180,167.541412 76.656105,168.501938 
M244.256287,187.811752 
	C253.326965,182.575623 260.701355,175.758438 265.457001,165.673660 
	C246.204742,166.852814 227.659454,167.988663 208.283493,169.175385 
	C212.050797,159.347580 215.137024,150.933701 218.607788,142.681534 
	C219.063995,141.596878 221.592499,140.616425 222.983246,140.817673 
	C231.538544,142.055603 240.087341,143.431808 248.549942,145.187897 
	C255.499481,146.629990 262.326355,148.663269 269.985748,150.634811 
	C272.514435,128.129272 274.988831,106.107079 277.504730,83.715462 
	C275.284088,83.715462 273.990295,83.641594 272.706970,83.726265 
	C240.474518,85.852959 208.240417,87.957573 176.018600,90.235588 
	C174.135345,90.368729 171.869370,91.491486 170.602707,92.894890 
	C162.886841,101.443764 158.129211,111.714050 154.290695,122.431892 
	C152.977249,126.099319 152.050842,129.905365 150.769882,134.251038 
	C156.432907,134.555603 161.156906,134.809662 166.581314,135.101395 
	C165.806000,137.615692 165.245285,139.456451 164.671021,141.292953 
	C158.319000,161.606979 151.837082,181.882385 145.778259,202.283447 
	C145.047226,204.744980 145.853394,208.334473 147.231415,210.630325 
	C152.201279,218.910416 159.419373,225.068436 167.579987,230.141617 
	C173.472122,233.804550 173.650131,233.919907 177.154541,228.148026 
	C182.074966,220.043884 186.834000,211.832932 191.365631,203.506348 
	C192.970612,200.557266 194.778381,199.196289 198.226196,198.937485 
	C213.901062,197.760925 229.258514,195.048050 244.256287,187.811752 
z"/>
<path fill="#FA1343" opacity="1.000000" stroke="none" 
	d="
M243.923187,187.974854 
	C229.258514,195.048050 213.901062,197.760925 198.226196,198.937485 
	C194.778381,199.196289 192.970612,200.557266 191.365631,203.506348 
	C186.834000,211.832932 182.074966,220.043884 177.154541,228.148026 
	C173.650131,233.919907 173.472122,233.804550 167.579987,230.141617 
	C159.419373,225.068436 152.201279,218.910416 147.231415,210.630325 
	C145.853394,208.334473 145.047226,204.744980 145.778259,202.283447 
	C151.837082,181.882385 158.319000,161.606979 164.671021,141.292953 
	C165.245285,139.456451 165.806000,137.615692 166.581314,135.101395 
	C161.156906,134.809662 156.432907,134.555603 150.769882,134.251038 
	C152.050842,129.905365 152.977249,126.099319 154.290695,122.431892 
	C158.129211,111.714050 162.886841,101.443764 170.602707,92.894890 
	C171.869370,91.491486 174.135345,90.368729 176.018600,90.235588 
	C208.240417,87.957573 240.474518,85.852959 272.706970,83.726265 
	C273.990295,83.641594 275.284088,83.715462 277.504730,83.715462 
	C274.988831,106.107079 272.514435,128.129272 269.985748,150.634811 
	C262.326355,148.663269 255.499481,146.629990 248.549942,145.187897 
	C240.087341,143.431808 231.538544,142.055603 222.983246,140.817673 
	C221.592499,140.616425 219.063995,141.596878 218.607788,142.681534 
	C215.137024,150.933701 212.050797,159.347580 208.283493,169.175385 
	C227.659454,167.988663 246.204742,166.852814 265.457001,165.673660 
	C260.701355,175.758438 253.326965,182.575623 243.923187,187.974854 
z"/>
<path fill="#6AD534" opacity="1.000000" stroke="none" 
	d="
M76.947701,169.169632 
	C77.978180,167.541412 79.232063,166.012512 80.006561,164.270493 
	C101.095940,116.835518 122.122452,69.372574 143.251373,21.955257 
	C143.891891,20.517818 145.499680,18.489174 146.683319,18.470875 
	C161.938507,18.235029 177.198578,18.314892 193.262924,18.314892 
	C188.409790,29.311956 183.885391,39.604961 179.328339,49.883499 
	C154.110809,106.762154 128.859756,163.625992 103.730652,220.543671 
	C102.328781,223.718918 100.750572,225.015060 97.127640,224.946991 
	C84.140907,224.702972 71.146370,224.899857 58.155361,224.827011 
	C56.443928,224.817429 54.735840,224.211151 53.286747,223.315811 
	C54.204475,221.814438 55.031250,220.954926 55.493057,219.930847 
	C61.176125,207.328537 66.892159,194.739655 72.400284,182.060699 
	C74.211319,177.891937 75.448250,173.473755 76.947701,169.169632 
z"/>
<path fill="#50B915" opacity="1.000000" stroke="none" 
	d="
M76.801903,168.835785 
	C75.448250,173.473755 74.211319,177.891937 72.400284,182.060699 
	C66.892159,194.739655 61.176125,207.328537 55.493057,219.930847 
	C55.031250,220.954926 54.204475,221.814438 53.227814,222.905258 
	C40.937447,196.192551 28.966389,169.325089 16.995935,142.457336 
	C15.803126,139.780075 14.613944,137.101196 13.026148,133.530411 
	C16.001982,133.530411 18.091648,133.529617 20.181313,133.530548 
	C32.327526,133.535950 44.475327,133.651230 56.618893,133.474701 
	C59.882263,133.427261 61.702076,134.274780 63.030743,137.454834 
	C67.387077,147.881348 72.087769,158.164001 76.801903,168.835785 
z"/>
</svg>